<?xml version="1.0" encoding="UTF-8"?>
<svg version="1.1" xmlns="http://www.w3.org/2000/svg" width="225" height="225">
<path d="M0 0 C74.25 0 148.5 0 225 0 C225 74.25 225 148.5 225 225 C150.75 225 76.5 225 0 225 C0 150.75 0 76.5 0 0 Z " fill="#FEFDFD" transform="translate(0,0)"/>
<path d="M0 0 C2.536875 -0.061875 5.07375 -0.12375 7.6875 -0.1875 C8.47729248 -0.21481201 9.26708496 -0.24212402 10.08081055 -0.27026367 C14.61476924 -0.32357739 17.43712454 0.16424198 21 3 C23.16479509 6.24719263 23.25134712 6.87794029 22.875 10.5625 C22.81054688 11.34753906 22.74609375 12.13257813 22.6796875 12.94140625 C22 15 22 15 19.9453125 16.27734375 C19.30335938 16.51582031 18.66140625 16.75429687 18 17 C18.66 18.11375 19.32 19.2275 20 20.375 C22 23.75 22 23.75 22 26 C19.25 26.375 19.25 26.375 16 26 C14.64721885 24.01310269 13.31431695 22.01254782 12 20 C8.86734521 19.0311941 8.86734521 19.0311941 6 19 C6 21.31 6 23.62 6 26 C4.02 26 2.04 26 0 26 C0 17.42 0 8.84 0 0 Z " fill="#D8212A" transform="translate(142,127)"/>
<path d="M0 0 C2.31 0 4.62 0 7 0 C8.46743436 3.01649306 9.92225103 6.03891051 11.375 9.0625 C11.7875 9.91005859 12.2 10.75761719 12.625 11.63085938 C14.89384127 16.36981009 16.73969476 20.89645626 18 26 C16.02 26 14.04 26 12 26 C11.34 24.68 10.68 23.36 10 22 C5.71 22 1.42 22 -3 22 C-3.66 23.32 -4.32 24.64 -5 26 C-6.98 26 -8.96 26 -11 26 C-8.34810503 16.88411104 -4.1194169 8.5225941 0 0 Z " fill="#D8252D" transform="translate(62,127)"/>
<path d="M0 0 C1.134375 0.020625 2.26875 0.04125 3.4375 0.0625 C5.27694626 4.01802103 7.10801553 7.97736285 8.9375 11.9375 C9.46214844 13.06542969 9.98679688 14.19335938 10.52734375 15.35546875 C11.02363281 16.43183594 11.51992187 17.50820312 12.03125 18.6171875 C12.49208984 19.61218262 12.95292969 20.60717773 13.42773438 21.63232422 C14.4375 24.0625 14.4375 24.0625 14.4375 26.0625 C12.4575 26.0625 10.4775 26.0625 8.4375 26.0625 C7.7775 24.4125 7.1175 22.7625 6.4375 21.0625 C4.31170987 21.12238141 2.18671587 21.21112744 0.0625 21.3125 C-1.12085938 21.35890625 -2.30421875 21.4053125 -3.5234375 21.453125 C-6.67541753 21.71898799 -6.67541753 21.71898799 -7.9765625 24.109375 C-8.16992188 24.75390625 -8.36328125 25.3984375 -8.5625 26.0625 C-10.5425 26.0625 -12.5225 26.0625 -14.5625 26.0625 C-12.73521177 20.04319759 -10.45516112 14.31935097 -7.9375 8.5625 C-7.62417725 7.84384766 -7.31085449 7.12519531 -6.98803711 6.38476562 C-4.19861901 0.07365998 -4.19861901 0.07365998 0 0 Z " fill="#D82129" transform="translate(181.5625,126.9375)"/>
<path d="M0 0 C1.98 0 3.96 0 6 0 C6.33 3.3 6.66 6.6 7 10 C7.65226562 9.278125 8.30453125 8.55625 8.9765625 7.8125 C9.85054687 6.884375 10.72453125 5.95625 11.625 5 C12.91277344 3.6078125 12.91277344 3.6078125 14.2265625 2.1875 C17.46566512 -0.36728517 18.97948601 -0.47161454 23 0 C21.55089321 3.76767766 19.13242988 5.86244919 16.14453125 8.4375 C14.80382729 9.92865081 14.80382729 9.92865081 15.0703125 11.8671875 C16.30961157 14.71028537 18.06156879 16.76058393 20.0625 19.125 C24 23.78910369 24 23.78910369 24 26 C20.9375 26.5625 20.9375 26.5625 17 26 C14.24862054 23.27517826 12.11251255 20.23618944 10 17 C6.87393036 18.60480784 6.87393036 18.60480784 6.48828125 20.9453125 C6.43027344 21.66460937 6.37226562 22.38390625 6.3125 23.125 C6.1578125 25.043125 6.1578125 25.043125 6 27 C4.02 27 2.04 27 0 27 C0 18.09 0 9.18 0 0 Z " fill="#D8242C" transform="translate(84,127)"/>
<path d="M0 0 C1.98 0 3.96 0 6 0 C6.14611313 3.37453898 6.23433467 6.74825766 6.3125 10.125 C6.35439453 11.07632813 6.39628906 12.02765625 6.43945312 13.0078125 C6.57759974 20.96505739 6.57759974 20.96505739 3.60546875 24.6171875 C-0.25116521 28.14424405 -2.60627391 28.34230046 -7.67578125 28.28515625 C-11.25079353 27.8465413 -13.3331253 26.34164608 -16 24 C-17.81855692 21.05905852 -18.24171729 18.88707943 -18.1953125 15.453125 C-18.18886719 14.60878906 -18.18242188 13.76445312 -18.17578125 12.89453125 C-18.15902344 12.02183594 -18.14226562 11.14914063 -18.125 10.25 C-18.11597656 9.36183594 -18.10695313 8.47367188 -18.09765625 7.55859375 C-18.07414577 5.37211942 -18.04128499 3.18619906 -18 1 C-16.02 1 -14.04 1 -12 1 C-11.93941406 2.19238281 -11.87882812 3.38476562 -11.81640625 4.61328125 C-11.73198851 6.17969925 -11.64734113 7.74610488 -11.5625 9.3125 C-11.52318359 10.09818359 -11.48386719 10.88386719 -11.44335938 11.69335938 C-11.40146484 12.45068359 -11.35957031 13.20800781 -11.31640625 13.98828125 C-11.27974854 14.68477783 -11.24309082 15.38127441 -11.20532227 16.09887695 C-11.04418847 18.2216572 -11.04418847 18.2216572 -10 21 C-6.59679066 21.67673447 -6.59679066 21.67673447 -3 22 C-0.56085508 19.56085508 -0.71337477 18.78553569 -0.5859375 15.4296875 C-0.54726562 14.53378906 -0.50859375 13.63789063 -0.46875 12.71484375 C-0.4378125 11.77769531 -0.406875 10.84054688 -0.375 9.875 C-0.33632812 8.93011719 -0.29765625 7.98523438 -0.2578125 7.01171875 C-0.16338654 4.67467625 -0.07781606 2.33764499 0 0 Z " fill="#D81F28" transform="translate(129,126)"/>
<path d="M0 0 C3 1 3 1 5 2 C4.67 3.65 4.34 5.3 4 7 C3.484375 6.835 2.96875 6.67 2.4375 6.5 C-0.73363876 5.84951 -3.77218334 5.9379266 -7 6 C-7 7.32 -7 8.64 -7 10 C-6.32453125 10.17015625 -5.6490625 10.3403125 -4.953125 10.515625 C4.75615341 13.15340584 4.75615341 13.15340584 7 17 C7 20.5625 7 20.5625 6 24 C2.68889775 27.31110225 -0.79255472 28.15616153 -5.375 28.25 C-9.36858558 28.22394071 -11.77496992 27.49679748 -15 25 C-14.67 23.68 -14.34 22.36 -14 21 C-9.71 21.33 -5.42 21.66 -1 22 C-0.67 21.01 -0.34 20.02 0 19 C-0.83144531 18.75765625 -1.66289063 18.5153125 -2.51953125 18.265625 C-3.60621094 17.93046875 -4.69289063 17.5953125 -5.8125 17.25 C-6.89144531 16.92515625 -7.97039063 16.6003125 -9.08203125 16.265625 C-12.22551295 14.90218715 -13.34745784 13.95539963 -15 11 C-15.5 8 -15.5 8 -15 5 C-10.25359874 0.37850404 -6.50793713 -0.5350694 0 0 Z " fill="#D8242C" transform="translate(43,126)"/>
<path d="M0 0 C2 3 2 3 2.875 5.5625 C4.24669581 8.53450759 5.05520452 8.74777088 8 10 C9.62816785 10.58049782 11.26735057 11.13065693 12.9140625 11.65625 C13.83960937 11.95660156 14.76515625 12.25695312 15.71875 12.56640625 C17.66333305 13.19107742 19.60865348 13.81345757 21.5546875 14.43359375 C22.47765625 14.73394531 23.400625 15.03429687 24.3515625 15.34375 C25.19541504 15.61380859 26.03926758 15.88386719 26.90869141 16.16210938 C29 17 29 17 31 19 C30.75 21.5625 30.75 21.5625 30 24 C26.70816539 25.6459173 23.5563519 25.50805027 20 25 C13.97104353 22.97994861 8.39308736 20.36205263 3 17 C1.68 19.31 0.36 21.62 -1 24 C-1.33 24 -1.66 24 -2 24 C-2.05425013 21.12474331 -2.09379277 18.25052354 -2.125 15.375 C-2.14175781 14.56675781 -2.15851563 13.75851563 -2.17578125 12.92578125 C-2.21420986 8.19906185 -1.82737094 4.44612298 0 0 Z " fill="#0F6E3E" transform="translate(89,74)"/>
<path d="M0 0 C0.33 0 0.66 0 1 0 C1.96638658 4.04961997 2.13396116 7.84202407 2.125 12 C2.12886719 13.794375 2.12886719 13.794375 2.1328125 15.625 C2.01757938 18.55327693 1.67823563 21.15786976 1 24 C0.59910156 23.61328125 0.19820312 23.2265625 -0.21484375 22.828125 C-7.33874995 16.30191615 -15.3765799 13.74823457 -24.49609375 10.9296875 C-27 10 -27 10 -29 8 C-28.46428571 4.46428571 -28.46428571 4.46428571 -27 3 C-20.28869268 2.24022936 -15.71665375 4.10371914 -9.63671875 6.90625 C-7.01392028 8.19157871 -7.01392028 8.19157871 -4 8 C-2.68 5.36 -1.36 2.72 0 0 Z " fill="#0C6C3B" transform="translate(136,63)"/>
<path d="M0 0 C0.66386719 0.27714844 1.32773438 0.55429688 2.01171875 0.83984375 C3.33623047 1.38318359 3.33623047 1.38318359 4.6875 1.9375 C5.55761719 2.29714844 6.42773438 2.65679687 7.32421875 3.02734375 C13.18408276 5.1574257 18.64660794 5.12227375 24.8125 5.0625 C26.13797852 5.05573242 26.13797852 5.05573242 27.49023438 5.04882812 C29.66018559 5.03709866 31.83010172 5.01916495 34 5 C28.76794019 10.37616315 24.62407146 12.70294496 17.1875 13.3125 C11.77020814 13.21199366 7.99138776 10.97380376 4.23046875 7.24609375 C0 2.50043911 0 2.50043911 0 0 Z " fill="#3E3C84" transform="translate(90,106)"/>
<path d="M0 0 C2.31 0 4.62 0 7 0 C8.46743436 3.01649306 9.92225103 6.03891051 11.375 9.0625 C11.7875 9.91005859 12.2 10.75761719 12.625 11.63085938 C14.89384127 16.36981009 16.73969476 20.89645626 18 26 C16.02 26 14.04 26 12 26 C11.34 24.02 10.68 22.04 10 20 C5.71 20 1.42 20 -3 20 C-3 19.67 -3 19.34 -3 19 C0.96 19 4.92 19 9 19 C9 17.68 9 16.36 9 15 C8.34 15 7.68 15 7 15 C2.59225513 5.58997722 2.59225513 5.58997722 2 1 C1.67 1.99 1.34 2.98 1 4 C0.34 4 -0.32 4 -1 4 C-0.67 2.68 -0.34 1.36 0 0 Z " fill="#D71F28" transform="translate(62,127)"/>
<path d="M0 0 C2.71206336 2.64252328 4.51584108 5.12296182 6.4375 8.375 C5.61185547 8.05015625 5.61185547 8.05015625 4.76953125 7.71875 C-5.12275373 4.4059848 -15.26811615 5.09545609 -25.5625 5.375 C-18.42174948 -2.16245888 -9.92807115 -4.52859386 0 0 Z " fill="#D71620" transform="translate(127.5625,48.625)"/>
<path d="M0 0 C2.97903734 2.97903734 4 5.80285329 4 10 C3.01 10.66 2.02 11.32 1 12 C0.67 12.33 0.34 12.66 0 13 C2.31 13.33 4.62 13.66 7 14 C7 14.33 7 14.66 7 15 C5.62714844 15.03867188 5.62714844 15.03867188 4.2265625 15.078125 C2.44378906 15.16320312 2.44378906 15.16320312 0.625 15.25 C-0.55835938 15.29640625 -1.74171875 15.3428125 -2.9609375 15.390625 C-6.11291753 15.65648799 -6.11291753 15.65648799 -7.4140625 18.046875 C-7.60742188 18.69140625 -7.80078125 19.3359375 -8 20 C-9.98 20 -11.96 20 -14 20 C-13.54554036 18.58208592 -13.08625056 17.16571954 -12.625 15.75 C-12.24214844 14.56664062 -12.24214844 14.56664062 -11.8515625 13.359375 C-11.04826333 11.13372042 -10.10288338 9.09068328 -9 7 C-7.35 7 -5.7 7 -4 7 C-2.68 4.69 -1.36 2.38 0 0 Z " fill="#D9272F" transform="translate(181,133)"/>
<path d="M0 0 C6.8359375 -0.1953125 6.8359375 -0.1953125 9 0 C9.66 0.66 10.32 1.32 11 2 C10.75 5.0625 10.75 5.0625 10 8 C6.78548731 9.60725635 3.56387464 9.05748185 0 9 C0 6.03 0 3.06 0 0 Z " fill="#FBF6F6" transform="translate(148,132)"/>
<path d="M0 0 C3.375 -0.125 3.375 -0.125 7 0 C9 2 9 2 9.25 5 C9 8 9 8 7 10 C3.375 10.125 3.375 10.125 0 10 C0 6.7 0 3.4 0 0 Z " fill="#535190" transform="translate(76,159)"/>
<path d="M0 0 C6.875 0.875 6.875 0.875 8 2 C8.25 4.9375 8.25 4.9375 8 8 C5 10 5 10 1.8125 9.625 C0.4203125 9.315625 0.4203125 9.315625 -1 9 C-1.625 6.1875 -1.625 6.1875 -2 3 C-1.34 2.01 -0.68 1.02 0 0 Z " fill="#3F3C86" transform="translate(109,159)"/>
<path d="M0 0 C5.625 -0.25 5.625 -0.25 9 2 C9.375 5 9.375 5 9 8 C5.5647952 10.29013653 4.014669 10.17842973 0 10 C0 6.7 0 3.4 0 0 Z " fill="#545290" transform="translate(185,159)"/>
<path d="M0 0 C0.66 0 1.32 0 2 0 C2.99 1.98 3.98 3.96 5 6 C5.99 4.02 6.98 2.04 8 0 C11.3 0 14.6 0 18 0 C18 0.66 18 1.32 18 2 C17.01 2 16.02 2 15 2 C15 4.64 15 7.28 15 10 C14.34 10 13.68 10 13 10 C13 7.36 13 4.72 13 2 C11.06890419 1.95710245 11.06890419 1.95710245 9 3 C7.20728609 6.48797488 7.20728609 6.48797488 6 10 C3 9 3 9 1.3125 6.125 C0 3 0 3 0 0 Z " fill="#4F4D8E" transform="translate(143,159)"/>
<path d="M0 0 C5.75 -0.125 5.75 -0.125 8 1 C8.042721 2.66611905 8.04063832 4.33382885 8 6 C7 7 7 7 4.4375 7.0625 C3.2309375 7.0315625 3.2309375 7.0315625 2 7 C2 7.99 2 8.98 2 10 C1.34 10 0.68 10 0 10 C0 6.7 0 3.4 0 0 Z " fill="#7A78A9" transform="translate(42,159)"/>
<path d="M0 0 C2.875 -0.125 2.875 -0.125 6 0 C8 2 8 2 8 6 C6.02 6.33 4.04 6.66 2 7 C2 7.99 2 8.98 2 10 C1.34 10 0.68 10 0 10 C0 6.7 0 3.4 0 0 Z " fill="#7573A6" transform="translate(134,159)"/>
<path d="M0 0 C2.875 -0.125 2.875 -0.125 6 0 C6.66 0.66 7.32 1.32 8 2 C7.46428571 5.53571429 7.46428571 5.53571429 6 7 C4.33382885 7.04063832 2.66611905 7.042721 1 7 C0.67 7.99 0.34 8.98 0 10 C0 6.7 0 3.4 0 0 Z " fill="#3F3B86" transform="translate(28,159)"/>
<path d="M0 0 C2.31 0 4.62 0 7 0 C7 0.66 7 1.32 7 2 C5.35 2 3.7 2 2 2 C2 2.66 2 3.32 2 4 C3.65 4 5.3 4 7 4 C7 4.66 7 5.32 7 6 C5.35 6 3.7 6 2 6 C2 6.66 2 7.32 2 8 C3.65 8 5.3 8 7 8 C7 8.66 7 9.32 7 10 C4.69 10 2.38 10 0 10 C0 6.7 0 3.4 0 0 Z " fill="#646399" transform="translate(52,159)"/>
<path d="M0 0 C5.20112114 2.1772135 7.68090651 4.60708214 11 9 C8.30439815 10.34780093 7.257383 9.67336458 4.4375 8.75 C3.63183594 8.49734375 2.82617188 8.2446875 1.99609375 7.984375 C1.00802734 7.49710938 1.00802734 7.49710938 0 7 C-1.04449911 3.86650268 -0.93423645 3.01031744 0 0 Z " fill="#DA2D37" transform="translate(123,47)"/>
<path d="M0 0 C1.98 0 3.96 0 6 0 C6 0.66 6 1.32 6 2 C4.68 2 3.36 2 2 2 C2 7.94 2 13.88 2 20 C1.34 19.67 0.68 19.34 0 19 C0 12.73 0 6.46 0 0 Z " fill="#DE464C" transform="translate(129,126)"/>
<path d="M0 0 C0.94875 0.04125 1.8975 0.0825 2.875 0.125 C2.875 1.115 2.875 2.105 2.875 3.125 C-0.095 2.63 -0.095 2.63 -3.125 2.125 C-2.795 3.775 -2.465 5.425 -2.125 7.125 C-0.805 7.455 0.515 7.785 1.875 8.125 C1.875 7.135 1.875 6.145 1.875 5.125 C2.535 5.125 3.195 5.125 3.875 5.125 C3.875 6.445 3.875 7.765 3.875 9.125 C1.0625 9.75 1.0625 9.75 -2.125 10.125 C-3.115 9.465 -4.105 8.805 -5.125 8.125 C-5.4375 5.125 -5.4375 5.125 -5.125 2.125 C-3.125 0.125 -3.125 0.125 0 0 Z " fill="#5B5996" transform="translate(124.125,158.875)"/>
<path d="M0 0 C2.672336 3.56311466 3.77263971 5.84585747 5 10 C2.03 10 -0.94 10 -4 10 C-2.68 6.7 -1.36 3.4 0 0 Z " fill="#F9EEED" transform="translate(65,133)"/>
<path d="M0 0 C2.97903734 2.97903734 4 5.80285329 4 10 C1.36 10 -1.28 10 -4 10 C-2.68 6.7 -1.36 3.4 0 0 Z " fill="#FAF0EF" transform="translate(181,133)"/>
<path d="M0 0 C0.66 0 1.32 0 2 0 C2 2.64 2 5.28 2 8 C3.32 7.67 4.64 7.34 6 7 C6.33 4.69 6.66 2.38 7 0 C7.33 0 7.66 0 8 0 C8.02689216 1.47906892 8.04634621 2.95827483 8.0625 4.4375 C8.07410156 5.26121094 8.08570312 6.08492187 8.09765625 6.93359375 C8 9 8 9 7 10 C4.5625 10.1875 4.5625 10.1875 2 10 C0 8 0 8 -0.1953125 6.0546875 C-0.13020833 4.03645833 -0.06510417 2.01822917 0 0 Z " fill="#4B488A" transform="translate(65,159)"/>
<path d="M0 0 C1.2065625 0.0309375 1.2065625 0.0309375 2.4375 0.0625 C2.4375 2.0425 2.4375 4.0225 2.4375 6.0625 C0.7875 6.0625 -0.8625 6.0625 -2.5625 6.0625 C-2.94468767 4.40635343 -3.27645102 2.73792976 -3.5625 1.0625 C-2.5625 0.0625 -2.5625 0.0625 0 0 Z " fill="#F9F9F9" transform="translate(112.5625,160.9375)"/>
<path d="M0 0 C1.65 0 3.3 0 5 0 C5.38218767 1.65614657 5.71395102 3.32457024 6 5 C5 6 5 6 2.4375 6.0625 C1.2309375 6.0315625 1.2309375 6.0315625 0 6 C0 4.02 0 2.04 0 0 Z " fill="#F4F5F7" transform="translate(78,161)"/>
<path d="M0 0 C0.33 0.99 0.66 1.98 1 3 C3.97 3.33 6.94 3.66 10 4 C10 4.33 10 4.66 10 5 C1.585 5.495 1.585 5.495 -7 6 C-2 1 -2 1 0 0 Z " fill="#DC3B42" transform="translate(109,48)"/>
<path d="M0 0 C1.65 0 3.3 0 5 0 C6.125 3.75 6.125 3.75 5 6 C3.35 6 1.7 6 0 6 C0 4.02 0 2.04 0 0 Z " fill="#F3F3F5" transform="translate(187,161)"/>
<path d="M0 0 C2.64 0 5.28 0 8 0 C8 0.66 8 1.32 8 2 C7.01 2 6.02 2 5 2 C5 4.64 5 7.28 5 10 C4.34 10 3.68 10 3 10 C3 7.36 3 4.72 3 2 C2.01 2 1.02 2 0 2 C0 1.34 0 0.68 0 0 Z " fill="#615F9A" transform="translate(175,159)"/>
<path d="M0 0 C0.66 0 1.32 0 2 0 C2 2.64 2 5.28 2 8 C3.65 8 5.3 8 7 8 C7 8.66 7 9.32 7 10 C4.69 10 2.38 10 0 10 C0 6.7 0 3.4 0 0 Z " fill="#5A5994" transform="translate(169,159)"/>
<path d="M0 0 C0 0.66 0 1.32 0 2 C-0.99 2 -1.98 2 -3 2 C-3 4.64 -3 7.28 -3 10 C-3.66 10 -4.32 10 -5 10 C-5 7.36 -5 4.72 -5 2 C-6.32 1.67 -7.64 1.34 -9 1 C-5.92677456 0.08941469 -3.19902639 -0.08886184 0 0 Z " fill="#5E5C97" transform="translate(161,159)"/>
<path d="M0 0 C-4.22797927 3.08290155 -4.22797927 3.08290155 -7 4 C-10.04138787 3.45519487 -12.18687732 2.38188482 -15 1 C-15 0.67 -15 0.34 -15 0 C-13.06325815 -0.19517554 -11.12555991 -0.38087873 -9.1875 -0.5625 C-8.10855469 -0.66691406 -7.02960938 -0.77132812 -5.91796875 -0.87890625 C-3 -1 -3 -1 0 0 Z " fill="#545290" transform="translate(124,112)"/>
<path d="M0 0 C0.66 0 1.32 0 2 0 C2.33 1.32 2.66 2.64 3 4 C4.32 2.68 5.64 1.36 7 0 C7.66 0.33 8.32 0.66 9 1 C8.525625 1.7425 8.05125 2.485 7.5625 3.25 C6.22130673 5.61050015 5.487688 7.36648477 5 10 C4.34 10 3.68 10 3 10 C2.690625 8.906875 2.38125 7.81375 2.0625 6.6875 C1.41662103 4.44592006 0.7376883 2.2130649 0 0 Z " fill="#4F4C8D" transform="translate(98,159)"/>
<path d="M0 0 C-0.33 2.64 -0.66 5.28 -1 8 C-1.268125 7.38125 -1.53625 6.7625 -1.8125 6.125 C-2.95556848 3.7004767 -2.95556848 3.7004767 -6 2 C-8.32387947 1.60612212 -10.65793749 1.26513915 -13 1 C-13 0.67 -13 0.34 -13 0 C-11.20909747 -0.19466332 -9.41723495 -0.38051213 -7.625 -0.5625 C-6.12839844 -0.71912109 -6.12839844 -0.71912109 -4.6015625 -0.87890625 C-2 -1 -2 -1 0 0 Z " fill="#D6161F" transform="translate(161,130)"/>
<path d="M0 0 C2.97 0.495 2.97 0.495 6 1 C5.2575 1.680625 5.2575 1.680625 4.5 2.375 C2.77390663 3.87635519 2.77390663 3.87635519 3 6 C1.68 5.34 0.36 4.68 -1 4 C-0.67 2.68 -0.34 1.36 0 0 Z " fill="#D92D35" transform="translate(29,147)"/>
<path d="M0 0 C1.65 0 3.3 0 5 0 C5.33 0.66 5.66 1.32 6 2 C6.99 2.66 7.98 3.32 9 4 C5.04 4 1.08 4 -3 4 C-3 3.67 -3 3.34 -3 3 C-1.35 2.67 0.3 2.34 2 2 C1.34 1.34 0.68 0.68 0 0 Z " fill="#D7141D" transform="translate(179,143)"/>
<path d="M0 0 C2.31 0.66 4.62 1.32 7 2 C6.67 2.66 6.34 3.32 6 4 C3.69 4 1.38 4 -1 4 C-0.67 2.68 -0.34 1.36 0 0 Z " fill="#D72229" transform="translate(111,47)"/>
<path d="M0 0 C2.3431213 0.25561323 4.67843403 0.59270772 7 1 C7.33 1.66 7.66 2.32 8 3 C7.0625 5.125 7.0625 5.125 6 7 C6 5.35 6 3.7 6 2 C4.02 2.33 2.04 2.66 0 3 C0 2.01 0 1.02 0 0 Z " fill="#65659A" transform="translate(109,159)"/>
<path d="M0 0 C1.7074998 1.28062485 3.37373596 2.61767557 5 4 C5 4.66 5 5.32 5 6 C3.02 6 1.04 6 -1 6 C-0.67 4.02 -0.34 2.04 0 0 Z " fill="#D71822" transform="translate(103,147)"/>
<path d="M0 0 C0.33 0.66 0.66 1.32 1 2 C0.34 2 -0.32 2 -1 2 C-0.34 3.65 0.32 5.3 1 7 C0.01 7.33 -0.98 7.66 -2 8 C-2.99 6.35 -3.98 4.7 -5 3 C-4.34 3 -3.68 3 -3 3 C-1.37485532 1.54166642 -1.37485532 1.54166642 0 0 Z " fill="#D92B33" transform="translate(117,144)"/>
<path d="M0 0 C1.65 0 3.3 0 5 0 C4.67 1.32 4.34 2.64 4 4 C2.68 3.67 1.36 3.34 0 3 C0 2.01 0 1.02 0 0 Z " fill="#DEDDE9" transform="translate(29,161)"/>
<path d="M0 0 C1.125 1.75 1.125 1.75 2 4 C1.125 6.25 1.125 6.25 0 8 C-0.99 8 -1.98 8 -3 8 C-1.125 2.25 -1.125 2.25 0 0 Z " fill="#D82A34" transform="translate(176,131)"/>
</svg>
